<?xml version="1.0" encoding="utf-8"?>
<!-- Generator: Adobe Illustrator 22.0.1, SVG Export Plug-In . SVG Version: 6.00 Build 0)  -->
<svg version="1.1" id="Слой_1" xmlns="http://www.w3.org/2000/svg" xmlns:xlink="http://www.w3.org/1999/xlink" x="0px" y="0px"
	 viewBox="0 0 292 325" style="enable-background:new 0 0 292 325;" xml:space="preserve">
<style type="text/css">
	.st0{fill:#219E21;}
</style>
<g transform="translate(0.000000,325.000000) scale(0.100000,-0.100000)">
	<path class="st0" d="M0,2485v-765h365h365v340v340h800h800v-665v-665h-725H880V535V0h785h785v475v475h235h235v785v785h-235h-235
		v365v365H1225H0V2485z M2330,2825v-305h-860H610v-340v-340H365H120v645v645h1105h1105V2825z M2800,1735v-665h-175h-175v665v665h175
		h175V1735z M2330,535V120h-665h-665v415v415h665h665V535z"/>
</g>
</svg>
